%% Auto-generated by payload-domain-inspector
erDiagram
  Product ||--o{ ProductCategory : "productCategory"
  Product ||--o{ Brand : "brand"
  ProductCategory ||--o{ ProductCategory : "parent"
  Category ||--o{ Category : "parent"
  Tenant ||--o{ Warehouse : "warehouse"
  Warehouse ||--o{ Tenant : "tenant"
  Warehouse ||--o{ Address : "warehouse_address"
  Stock ||--o{ Tenant : "tenant"
  Stock ||--o{ Product : "product"
  Stock ||--o{ Currency : "currency"
  Stock ||--o{ Warehouse : "warehouse"
  CompanyProject ||--o{ Tenant : "tenant"
  CompanyCertification ||--o{ Tenant : "tenant"
  CompanyPost ||--o{ Tenant : "tenant"
  Subscription ||--o{ Tenant : "tenant"
  Subscription ||--o{ Tariff : "tariff"
  Click ||--o{ Tenant : "tenant"